<?xml version="1.0" encoding="UTF-8" standalone="no"?>
<!-- Generated by IcoMoon.io -->

<svg
   xmlns:dc="http://purl.org/dc/elements/1.1/"
   xmlns:cc="http://creativecommons.org/ns#"
   xmlns:rdf="http://www.w3.org/1999/02/22-rdf-syntax-ns#"
   xmlns:svg="http://www.w3.org/2000/svg"
   xmlns="http://www.w3.org/2000/svg"
   xmlns:sodipodi="http://sodipodi.sourceforge.net/DTD/sodipodi-0.dtd"
   xmlns:inkscape="http://www.inkscape.org/namespaces/inkscape"
   version="1.1"
   width="70"
   height="32"
   viewBox="0 0 70 32"
   id="svg2"
   inkscape:version="0.91 r13725"
   sodipodi:docname="connection.svg">
  <metadata
     id="metadata12">
    <rdf:RDF>
      <cc:Work
         rdf:about="">
        <dc:format>image/svg+xml</dc:format>
        <dc:type
           rdf:resource="http://purl.org/dc/dcmitype/StillImage" />
        <dc:title>connection</dc:title>
      </cc:Work>
    </rdf:RDF>
  </metadata>
  <defs
     id="defs10" />
  <sodipodi:namedview
     pagecolor="#ffffff"
     bordercolor="#666666"
     borderopacity="1"
     objecttolerance="10"
     gridtolerance="10"
     guidetolerance="10"
     inkscape:pageopacity="0"
     inkscape:pageshadow="2"
     inkscape:window-width="1366"
     inkscape:window-height="720"
     id="namedview8"
     showgrid="false"
     inkscape:zoom="7.375"
     inkscape:cx="32.154268"
     inkscape:cy="16.552417"
     inkscape:window-x="0"
     inkscape:window-y="0"
     inkscape:window-maximized="1"
     inkscape:current-layer="svg2" />
  <title
     id="title4">connection</title>
  <path
     d="m 20,18 c 3.308,0 6.308,1.346 8.481,3.519 l -2.827,2.827 C 24.205,22.897 22.205,22 20,22 c -2.205,0 -4.206,0.897 -5.654,2.346 L 11.519,21.519 C 13.692,19.346 16.692,18 20,18 Z M 5.858,15.858 C 9.635,12.081 14.658,10 20,10 c 5.342,0 10.365,2.08 14.142,5.858 l -2.828,2.828 C 28.292,15.664 24.274,14 20,14 15.726,14 11.708,15.664 8.686,18.686 L 5.858,15.858 Z M 30.899,4.201 c 3.334,1.41 6.329,3.429 8.899,6 l 0,0 -2.828,2.828 C 32.437,8.496 26.41,6 19.999,6 13.588,6 7.561,8.496 3.028,13.029 L 0.2,10.201 C 2.771,7.63 5.765,5.612 9.099,4.201 12.552,2.74 16.219,2 19.998,2 23.777,2 27.444,2.741 30.897,4.201 Z M 18,28 c 0,-1.105 0.895,-2 2,-2 1.105,0 2,0.895 2,2 0,1.105 -0.895,2 -2,2 -1.105,0 -2,-0.895 -2,-2 z"
     id="path6"
     style="fill:#000000;fill-opacity:1"
     inkscape:connector-curvature="0" />
  <g
     id="g4159"
     transform="matrix(0.69181875,0,0,0.6564182,15.134129,6.1362217)">
    <path
       sodipodi:nodetypes="ccc"
       inkscape:connector-curvature="0"
       id="path4140"
       d="M 43.864406,1.7966101 72.067797,29.593221 71.796611,29.322034"
       style="fill:none;fill-rule:evenodd;stroke:#000000;stroke-width:6;stroke-linecap:butt;stroke-linejoin:miter;stroke-miterlimit:4;stroke-dasharray:none;stroke-opacity:1" />
    <path
       sodipodi:nodetypes="cc"
       inkscape:connector-curvature="0"
       id="path4157"
       d="M 72.623349,1.3766506 43.98682,29.6064"
       style="fill:none;fill-rule:evenodd;stroke:#000000;stroke-width:5.96272135;stroke-linecap:butt;stroke-linejoin:miter;stroke-miterlimit:4;stroke-dasharray:none;stroke-opacity:1" />
  </g>
</svg>
